<?xml version="1.0" encoding="utf-8"?>
<!-- Generator: Adobe Illustrator 16.0.0, SVG Export Plug-In . SVG Version: 6.00 Build 0)  -->
<!DOCTYPE svg PUBLIC "-//W3C//DTD SVG 1.1//EN" "http://www.w3.org/Graphics/SVG/1.1/DTD/svg11.dtd">
<svg version="1.1" id="Layer_1" xmlns="http://www.w3.org/2000/svg" xmlns:xlink="http://www.w3.org/1999/xlink" x="0px" y="0px"
	 width="56.016px" height="17px" viewBox="0 0 56.016 17" enable-background="new 0 0 56.016 17" xml:space="preserve">
<title>REFUNDED</title>
<desc>Created with Sketch.</desc>
<path id="Rectangle_1_" fill="none" stroke="#D09954" d="M2.5,0.5h51.016c1.104,0,2,0.896,2,2v12c0,1.104-0.896,2-2,2H2.5
	c-1.104,0-2-0.896-2-2v-12C0.5,1.396,1.396,0.5,2.5,0.5z"/>
<g>
	<path fill="#D09954" d="M10.788,12H9.53l-0.5-1.301H6.741L6.268,12H5.042l2.23-5.727h1.223L10.788,12z M8.659,9.734L7.87,7.609
		L7.096,9.734H8.659z"/>
	<path fill="#D09954" d="M11.393,6.273h1.156v3.102c0,0.492,0.014,0.811,0.043,0.957c0.049,0.234,0.167,0.422,0.354,0.564
		s0.441,0.213,0.764,0.213c0.328,0,0.576-0.066,0.742-0.201s0.267-0.299,0.301-0.494s0.051-0.52,0.051-0.973V6.273h1.156v3.008
		c0,0.688-0.031,1.174-0.094,1.457s-0.178,0.523-0.346,0.719s-0.393,0.352-0.674,0.467s-0.648,0.174-1.102,0.174
		c-0.547,0-0.961-0.063-1.244-0.189s-0.506-0.291-0.67-0.492s-0.272-0.414-0.324-0.635c-0.076-0.328-0.113-0.813-0.113-1.453V6.273z
		"/>
	<path fill="#D09954" d="M18.467,12V7.242h-1.699V6.273h4.551v0.969h-1.695V12H18.467z"/>
	<path fill="#D09954" d="M22.069,12V6.273h1.156v2.254h2.266V6.273h1.156V12h-1.156V9.496h-2.266V12H22.069z"/>
	<path fill="#D09954" d="M29.831,9.172c0-0.583,0.087-1.073,0.262-1.469c0.13-0.292,0.308-0.553,0.533-0.785s0.472-0.404,0.74-0.516
		c0.356-0.151,0.769-0.227,1.234-0.227c0.844,0,1.519,0.262,2.025,0.785s0.76,1.251,0.76,2.184c0,0.924-0.251,1.648-0.754,2.17
		s-1.175,0.783-2.016,0.783c-0.852,0-1.528-0.26-2.031-0.779S29.831,10.084,29.831,9.172z M31.022,9.133
		c0,0.648,0.149,1.141,0.449,1.475s0.68,0.502,1.141,0.502s0.839-0.166,1.135-0.498s0.443-0.83,0.443-1.494
		c0-0.656-0.144-1.146-0.432-1.469s-0.67-0.484-1.146-0.484s-0.86,0.164-1.152,0.49S31.022,8.474,31.022,9.133z"/>
	<path fill="#D09954" d="M36.3,12V6.273h1.125l2.344,3.824V6.273h1.074V12h-1.16l-2.309-3.734V12H36.3z"/>
	<path fill="#D09954" d="M42.097,12V6.32h1.156v4.715h2.875V12H42.097z"/>
	<path fill="#D09954" d="M47.722,12V9.59l-2.098-3.316h1.355l1.348,2.266l1.32-2.266h1.332l-2.105,3.324V12H47.722z"/>
</g>
</svg>
