<svg width="16" height="12" viewBox="0 0 16 12" fill="none" xmlns="http://www.w3.org/2000/svg">
<g id="ic_password_show">
<path d="M15.5112 4.34286C14.4776 2.72103 12.1265 0 8 0C3.87353 0 1.5224 2.72103 0.488783 4.34286C0.169253 4.84078 0 5.4146 0 6C0 6.5854 0.169253 7.15923 0.488783 7.65714C1.5224 9.27897 3.87353 12 8 12C12.1265 12 14.4776 9.27897 15.5112 7.65714C15.8307 7.15923 16 6.5854 16 6C16 5.4146 15.8307 4.84078 15.5112 4.34286ZM14.375 6.98491C13.4873 8.3756 11.478 10.7159 8 10.7159C4.52196 10.7159 2.5127 8.3756 1.62503 6.98491C1.43519 6.68895 1.33464 6.34791 1.33464 6C1.33464 5.65209 1.43519 5.31105 1.62503 5.01509C2.5127 3.6244 4.52196 1.28411 8 1.28411C11.478 1.28411 13.4873 3.62183 14.375 5.01509C14.5648 5.31105 14.6654 5.65209 14.6654 6C14.6654 6.34791 14.5648 6.68895 14.375 6.98491Z" fill="#09090B"/>
<path d="M7.99989 2.78973C7.34086 2.78973 6.69663 2.97801 6.14867 3.33076C5.60071 3.68351 5.17363 4.18488 4.92143 4.77148C4.66923 5.35808 4.60324 6.00356 4.73181 6.6263C4.86038 7.24903 5.17773 7.82104 5.64374 8.27001C6.10974 8.71897 6.70346 9.02472 7.34983 9.14859C7.99619 9.27246 8.66616 9.20889 9.27502 8.96591C9.88389 8.72293 10.4043 8.31146 10.7704 7.78353C11.1366 7.25561 11.332 6.63493 11.332 6C11.3309 5.1489 10.9795 4.33294 10.3549 3.73112C9.73021 3.1293 8.88329 2.79075 7.99989 2.78973ZM7.99989 7.92617C7.60447 7.92617 7.21793 7.8132 6.88916 7.60155C6.56038 7.3899 6.30413 7.08907 6.15281 6.73711C6.00149 6.38515 5.9619 5.99787 6.03904 5.62423C6.11618 5.25059 6.30659 4.90738 6.5862 4.638C6.8658 4.36862 7.22203 4.18517 7.60985 4.11085C7.99767 4.03653 8.39965 4.07467 8.76497 4.22046C9.13029 4.36624 9.44253 4.61313 9.66221 4.92988C9.88189 5.24664 9.99914 5.61904 9.99914 6C9.99914 6.51085 9.78851 7.00078 9.41358 7.36201C9.03864 7.72323 8.53012 7.92617 7.99989 7.92617Z" fill="#128943"/>
</g>
</svg>
