<?xml version="1.0" encoding="UTF-8"?>
<svg xmlns="http://www.w3.org/2000/svg" id="Layer_1" data-name="Layer 1" viewBox="0 0 100 100" width="512" height="512"><path d="M50,3.5A1.5,1.5,0,0,0,48.5,5v5.788A39.286,39.286,0,0,0,10.782,48.75H4.75a1.5,1.5,0,0,0,0,3h6.044A39.293,39.293,0,0,0,48.5,89.212V95.5a1.5,1.5,0,0,0,3,0V89.212A39.293,39.293,0,0,0,89.206,51.75H95.25a1.5,1.5,0,0,0,0-3H89.218A39.286,39.286,0,0,0,51.5,10.788V5A1.5,1.5,0,0,0,50,3.5ZM86.218,48.75H79.75a1.5,1.5,0,0,0,0,3h6.456A36.293,36.293,0,0,1,51.5,86.212V80a1.5,1.5,0,0,0-3,0v6.212A36.293,36.293,0,0,1,13.794,51.75H20.25a1.5,1.5,0,0,0,0-3H13.782A36.285,36.285,0,0,1,48.5,13.788V20.5a1.5,1.5,0,0,0,3,0V13.788A36.285,36.285,0,0,1,86.218,48.75Z"/><path d="M38.7,39.688a11.289,11.289,0,0,0,4.09,8.7A14.165,14.165,0,0,0,31.862,62.149v7.99a1.5,1.5,0,0,0,1.5,1.5h33.29a1.5,1.5,0,0,0,1.5-1.5v-7.99A14.165,14.165,0,0,0,57.229,48.385a11.309,11.309,0,1,0-18.534-8.7ZM54,51a11.162,11.162,0,0,1,11.15,11.149v6.49H34.862v-6.49A11.162,11.162,0,0,1,46.012,51Zm4.317-11.312a8.312,8.312,0,1,1-8.312-8.313A8.322,8.322,0,0,1,58.319,39.688Z"/></svg>
