<svg width="148" height="148" viewBox="0 0 148 148" fill="none" xmlns="http://www.w3.org/2000/svg">
<path fill-rule="evenodd" clip-rule="evenodd" d="M16 30.9948H36.1466V44.9424C36.1466 44.9424 43.2676 34.3035 53.1937 30.9948C63.0268 27.7171 75.6649 31.7696 75.6649 31.7696L93.4869 16.2723C93.4869 16.2723 82.1196 30.7933 73.3403 44.1675C65.088 56.7282 59.3927 68.1885 59.3927 68.1885C59.3927 68.1885 53.4959 78.3083 54.7435 89.11C55.5958 96.5177 63.267 98.4084 63.267 98.4084C63.267 98.4084 69.2025 99.0128 74.1152 93.7592C78.9039 88.6295 81.8639 80.5864 81.8639 80.5864C81.8639 80.5864 83.4136 71.2957 81.8639 65.089C79.9654 57.4953 74.8901 52.6911 74.8901 52.6911L85.7382 37.1937C85.7382 37.1937 95.4086 44.4155 98.911 55.7906C103.552 70.885 101.236 82.1361 101.236 82.1361C101.236 82.1361 100.12 95.9288 87.288 107.707C78.0438 116.192 63.267 117.005 63.267 117.005C63.267 117.005 53.1782 116.765 46.9948 109.257C41.6172 102.717 41.5707 92.9843 41.5707 92.9843C41.5707 92.9843 41.4699 82.2446 46.2199 72.0628C52.1786 59.293 63.267 46.4922 63.267 46.4922C63.267 46.4922 53.2325 45.6708 46.9948 49.5916C39.7497 54.1479 36.1466 63.5393 36.1466 63.5393V148H16V30.9948Z" fill="#096956"/>
<path fill-rule="evenodd" clip-rule="evenodd" d="M102.785 0C102.785 0 105.722 6.26094 104.335 12.3979C103.01 18.2714 97.3613 24.0209 97.3613 24.0209L132.23 0H102.785Z" fill="#FDB928"/>
</svg>
