<svg xmlns="http://www.w3.org/2000/svg" version="1.1" xmlns:xlink="http://www.w3.org/1999/xlink" width="512" height="512" x="0" y="0" viewBox="0 0 24 24" style="enable-background:new 0 0 512 512" xml:space="preserve" class=""><g><path fill="#424242" d="M12 2.75a.75.75 0 0 0 0 1.5A7.75 7.75 0 1 1 4.25 12a7.65 7.65 0 0 1 1.07-3.88l.27 1.08a.75.75 0 0 0 .72.57h.19a.75.75 0 0 0 .5-.93l-.64-2.75a.75.75 0 0 0-.91-.54l-2.75.68a.75.75 0 0 0-.54.91.76.76 0 0 0 .91.55L4 7.47A9.16 9.16 0 0 0 2.75 12 9.25 9.25 0 1 0 12 2.75z" opacity="1" data-original="#424242" class=""></path><path fill="#424242" d="M14.76 13.9a2.43 2.43 0 0 0-1.61-2.29L11.36 11a1 1 0 0 1-.62-.88.93.93 0 0 1 .93-.92h.4a3 3 0 0 1 1.55.43.75.75 0 0 0 .78-1.29 4.67 4.67 0 0 0-1.65-.59V7a.75.75 0 0 0-1.5 0v.72a2.42 2.42 0 0 0-.4 4.67l1.79.63a1 1 0 0 1 .62.88.93.93 0 0 1-.93.92h-.4a3 3 0 0 1-1.55-.43.75.75 0 0 0-.78 1.29 4.67 4.67 0 0 0 1.65.59V17a.75.75 0 0 0 1.5 0v-.72a2.43 2.43 0 0 0 2.01-2.38z" opacity="1" data-original="#43a047" class=""></path></g></svg>